<?xml version="1.0" standalone="no"?>
<!DOCTYPE svg PUBLIC "-//W3C//DTD SVG 20010904//EN"
 "http://www.w3.org/TR/2001/REC-SVG-20010904/DTD/svg10.dtd">
<svg version="1.0" xmlns="http://www.w3.org/2000/svg"
 width="1280.000000pt" height="1214.000000pt" viewBox="0 0 1280.000000 1214.000000"
 preserveAspectRatio="xMidYMid meet">
<metadata>
Created by potrace 1.15, written by Peter Selinger 2001-2017
</metadata>
<g transform="translate(0.000000,1214.000000) scale(0.100000,-0.100000)"
fill="#fff" stroke="none">
<path d="M5780 12129 c-1136 -181 -2132 -819 -2767 -1774 -355 -534 -571
-1130 -649 -1785 -18 -156 -24 -533 -12 -720 l7 -105 -147 -72 c-528 -258
-1028 -676 -1397 -1168 -783 -1044 -1015 -2384 -631 -3645 42 -140 120 -343
128 -335 3 3 -10 53 -28 111 -121 381 -152 855 -84 1270 158 958 772 1754
1655 2144 392 173 787 250 1220 237 544 -17 1039 -175 1492 -477 300 -200 567
-461 770 -756 l49 -72 119 70 c66 38 124 73 128 77 4 4 -4 52 -18 105 -82 317
51 651 334 837 80 52 201 104 270 115 l41 7 0 158 c0 129 -3 159 -14 159 -44
0 -237 23 -336 41 -1101 193 -1986 1009 -2261 2085 -66 260 -83 400 -83 699 0
280 11 390 61 615 206 928 869 1699 1750 2036 128 49 362 118 436 129 26 4 47
11 47 16 0 10 -4 10 -80 -2z"/>
<path d="M6944 12132 c3 -5 34 -15 68 -22 105 -20 296 -79 428 -131 875 -343
1531 -1109 1734 -2022 51 -228 61 -332 60 -627 0 -234 -4 -295 -22 -409 -50
-308 -129 -557 -262 -826 -143 -291 -309 -523 -535 -750 -473 -475 -1081 -760
-1757 -825 l-128 -13 0 -153 0 -154 28 -6 c176 -38 316 -117 437 -246 111
-118 173 -237 202 -391 19 -103 13 -247 -16 -337 -11 -36 -21 -70 -21 -77 0
-6 57 -45 127 -87 l127 -74 49 71 c137 199 331 412 522 574 131 111 358 261
520 345 922 473 2007 413 2865 -157 174 -116 273 -197 431 -355 542 -538 831
-1238 830 -2005 0 -213 -9 -318 -42 -510 -18 -101 -81 -346 -104 -407 -4 -10
-3 -18 2 -18 19 0 126 312 183 535 217 856 159 1727 -172 2544 -99 245 -223
478 -384 721 -148 224 -293 400 -498 606 -327 326 -647 560 -1018 742 l-157
77 7 100 c12 174 6 569 -12 715 -24 204 -53 366 -96 539 -335 1352 -1358 2448
-2690 2879 -179 58 -405 113 -580 142 -36 5 -80 13 -98 16 -20 3 -32 1 -28 -4z"/>
<path d="M6185 9064 c-198 -19 -279 -29 -400 -50 -547 -95 -1092 -335 -1562
-687 -68 -51 -123 -97 -123 -103 0 -16 94 -187 157 -284 97 -149 255 -339 359
-433 l41 -37 84 67 c372 294 816 486 1289 558 229 34 567 30 805 -11 442 -76
870 -267 1224 -547 l84 -67 45 42 c167 154 352 396 470 617 l51 95 -82 64
c-196 154 -403 285 -640 402 -386 192 -756 303 -1187 356 -118 15 -528 27
-615 18z"/>
<path d="M2875 6011 l-70 -6 -17 -105 c-43 -275 -49 -690 -14 -950 123 -891
547 -1686 1205 -2263 314 -274 635 -475 1019 -638 l112 -47 39 56 c84 125 177
310 244 488 34 88 97 296 97 318 0 6 -35 24 -77 40 -208 77 -521 260 -723 422
-119 96 -312 290 -408 411 -317 400 -509 862 -573 1378 -20 159 -15 464 10
635 11 79 18 147 13 150 -13 11 -153 48 -283 74 -211 43 -372 53 -574 37z"/>
<path d="M9595 6014 c-132 -14 -345 -57 -500 -102 -36 -10 -36 -13 -10 -197
21 -154 24 -437 6 -595 -92 -802 -534 -1516 -1215 -1962 -135 -88 -349 -199
-478 -248 -64 -24 -88 -38 -88 -51 0 -25 45 -178 86 -294 45 -126 167 -375
236 -482 l53 -81 75 29 c137 54 453 217 590 304 805 514 1372 1299 1595 2207
89 361 126 799 95 1108 -14 143 -42 337 -49 349 -7 11 -320 23 -396 15z"/>
<path d="M5660 4832 c-63 -37 -120 -70 -127 -75 -8 -5 0 -32 29 -95 374 -806
362 -1718 -32 -2497 -144 -285 -294 -491 -524 -720 -227 -226 -429 -375 -698
-515 -811 -421 -1758 -426 -2581 -14 -262 132 -485 293 -712 516 -88 86 -161
155 -164 153 -8 -9 160 -204 294 -343 834 -862 2000 -1312 3187 -1232 704 49
1416 290 1960 667 l108 74 107 -74 c420 -288 982 -517 1503 -611 1331 -240
2696 197 3635 1165 123 127 305 338 305 354 0 4 -58 -50 -128 -121 -476 -481
-1064 -764 -1743 -840 -171 -19 -515 -14 -674 10 -320 48 -585 130 -870 271
-753 370 -1299 1059 -1494 1885 -127 535 -91 1123 98 1631 31 85 121 294 137
320 2 4 -55 41 -127 83 l-132 77 -66 -64 c-166 -159 -333 -229 -551 -229 -221
-1 -407 79 -565 241 -27 28 -52 51 -55 50 -3 0 -57 -30 -120 -67z"/>
</g>
</svg>
